# xmcd CD database file
#
# Track frame offsets:
#	150
#	16474
#	33780
#	47912
#	61927
#	82616
#	116366
#	137447
#	152755
#	174881
#	190515
#	211792
#
# Disc length: 3000 seconds
#
# Revision: 1
# Processed by: cddbd v1.5.2PL0 Copyright (c) Steve Scherf et al.
# Submitted via: CDex 1.70beta2
#
DISCID=820bb60c
DTITLE=Granada Blues Band - The Grand Sessions
DYEAR=2009
DGENRE=Blues
TTITLE0=Goodbye Baby
TTITLE1=New Coochie Man
TTITLE2=Backdoor Ramblin' Man
TTITLE3=Little Latin Lupe Lu
TTITLE4=Make Love to You
TTITLE5=Pendejo Blues
TTITLE6=Monkey on my Back
TTITLE7=Reconsider
TTITLE8=Black-Eyed Blues
TTITLE9=No More Doggin'
TTITLE10=Rock me, Baby
TTITLE11=Guilty
EXTD=YEAR: 2009
EXTT0=
EXTT1=
EXTT2=
EXTT3=
EXTT4=
EXTT5=
EXTT6=
EXTT7=
EXTT8=
EXTT9=
EXTT10=
EXTT11=
PLAYORDER=
